# AST/ASF file generated using VICON BodyLanguage
# -----------------------------------------------
:version 1.10
:name VICON
:units
  mass 1.0
  length 0.45
  angle deg
:documentation
   .ast/.asf automatically generated from VICON data using
   VICON BodyBuilder and BodyLanguage model FoxedUp or BRILLIANT.MOD
:root
   order TX TY TZ RX RY RZ
   axis XYZ
   position 0 0 0  
   orientation 0 0 0 
:bonedata
  begin
     id 1 
     name lhipjoint
     direction 0.707368 -0.647095 0.284426 
     length 2.60678 
     axis 0 0 0  XYZ
  end
  begin
     id 2 
     name lfemur
     direction 0.34202 -0.939693 0  
     length 6.63812  
     axis 0 0 20  XYZ
    dof rx ry rz
    limits (-160.0 20.0)
           (-70.0 70.0)
           (-60.0 70.0)
  end
  begin
     id 3 
     name ltibia
     direction 0.34202 -0.939693 0   
     length 7.51178   
     axis 0 0 20   XYZ
    dof rx
    limits (-10.0 170.0)
  end
  begin
     id 4 
     name lfoot
     direction 0.121251 -0.333133 0.935051   
     length 1.83716   
     axis -90 7.62852e-016 20   XYZ
    dof rx rz
    limits (-45.0 90.0)
           (-70.0 20.0)
  end
  begin
     id 5 
     name ltoes
     direction 1.53611e-011 -4.21962e-011 1   
     length 0.916133   
     axis -90 7.62852e-016 20   XYZ
    dof rx
    limits (-90.0 20.0)
  end
  begin
     id 6 
     name rhipjoint
     direction -0.692419 -0.660507 0.290321   
     length 2.55385  
     axis 0 0 0  XYZ 
  end
  begin
     id 7 
     name rfemur
     direction -0.34202 -0.939693 0   
     length 7.29079   
     axis 0 0 -20   XYZ
    dof rx ry rz
    limits (-160.0 20.0)
           (-70.0 70.0)
           (-70.0 60.0)
  end
  begin
     id 8 
     name rtibia
     direction -0.34202 -0.939693 0   
     length 7.47143   
     axis 0 0 -20   XYZ
    dof rx
    limits (-10.0 170.0)
 end
 begin
     id 9 
     name rfoot
     direction -0.119907 -0.329441 0.936532   
     length 1.79439  
     axis -90 -7.62852e-016 -20   XYZ
    dof rx rz
    limits (-45.0 90.0)
           (-20.0 70.0)
  end
  begin
     id 10 
     name rtoes
     direction -1.53571e-011 -4.21961e-011 1   
     length 0.896039   
     axis -90 -7.62852e-016 -20   XYZ
    dof rx
    limits (-90.0 20.0)
  end
  begin
     id 11 
     name lowerback
     direction 0.0367721 0.992912 -0.113016   
     length 1.73542   
     axis 0 0 0   XYZ
    dof rx ry rz
    limits (-20.0 45.0)
           (-30.0 30.0)
           (-30.0 30.0)
  end
  begin
     id 12 
     name upperback
     direction -0.000314626 0.990678 0.136227   
     length 1.7514   
     axis 0 0 0   XYZ
    dof rx ry rz
    limits (-20.0 45.0)
           (-30.0 30.0)
           (-30.0 30.0)
  end
  begin
     id 13 
     name thorax
     direction -0.0226159 0.981151 0.191917   
     length 1.71471   
     axis 0 0 0   XYZ
    dof rx ry rz
    limits (-20.0 45.0)
           (-30.0 30.0)
           (-30.0 30.0)
  end
  begin
     id 14 
     name lowerneck
     direction 0.0219333 0.998071 0.0580739   
     length 1.65882   
     axis 0 0 0   XYZ
    dof rx ry rz
    limits (-20.0 45.0)
           (-30.0 30.0)
           (-30.0 30.0)
  end
  begin
     id 15 
     name upperneck
     direction 0.0384529 0.980058 -0.194957   
     length 1.6612   
     axis 0 0 0   XYZ
    dof rx ry rz
    limits (-20.0 45.0)
           (-30.0 30.0)
           (-30.0 30.0)
  end
  begin
     id 16
     name head
     direction 0.00592123 0.997421 -0.0715234  
     length 1.68077  
     axis 0 0 0   XYZ
    dof rx ry rz
    limits (-20.0 45.0)
           (-30.0 30.0)
           (-30.0 30.0)
  end
  begin
     id 17 
     name lclavicle
     direction 0.904803 0.417826 0.0821728  
     length 3.42227  
     axis 0 0 0   XYZ
    dof ry rz
    limits (-20.0 10.0)
           (0.0 20.0)
  end
  begin
     id 18 
     name lhumerus
     direction 1 -4.48965e-011 -2.68786e-027   
     length 5.11878   
     axis -180 -30 -90   XYZ
    dof rx ry rz
    limits (-60.0 90.0)
           (-90.0 90.0)
           (-90.0 90.0)
  end
  begin
     id 19
     name lradius
     direction 1 -4.48965e-011 2.61168e-028   
     length 3.59971   
     axis -180 -30 -90   XYZ
    dof rx
    limits (-10.0 170.0)
  end
  begin
     id 20
     name lwrist
     direction 1 -4.48965e-011 1.58672e-027   
     length 1.79985   
     axis -1.65735e-015 90 90   XYZ
    dof ry
    limits (-180.0 0.0)
 end
  begin
     id 21 
     name lhand
     direction 1 -4.48942e-011 3.17344e-027   
     length 0.62877   
     axis -2.02492e-015 90 90   XYZ
    dof rx rz
    limits (-90.0 90.0)
           (-45.0 45.0)
  end
  begin
     id 22 
     name lfingers
     direction 1 -4.49011e-011 6.34687e-027   
     length 0.506931   
     axis -4.04985e-015 90 90   XYZ
    dof rx
    limits (0.0 90.0)
  end
  begin
     id 23
     name lthumb
     direction 0.707107 -6.34982e-011 0.707107   
     length 0.727854   
     axis -90 45 2.85299e-015   XYZ
    dof rx rz
    limits (-45.0 45.0)
           (-45.0 45.0)
  end
  begin
     id 24 
     name rclavicle
     direction -0.945647 0.32488 0.0143075   
     length 3.52737  
     axis 0 0 0   XYZ 
    dof ry rz
    limits (-10.0 20.0)
           (-20.0 0.0)
  end
  begin
     id 25 
     name rhumerus
     direction -1 -4.48962e-011 1.92182e-027  
     length 5.4902   
     axis -180 30 90   XYZ
    dof rx ry rz
    limits (-90.0 60.0)
           (-90.0 90.0)
           (-90.0 90.0)
  end
  begin
     id 26 
     name rradius
     direction -1 -4.48967e-011 -5.97193e-028   
     length 3.20659   
     axis -180 30 90   XYZ
    dof rx
    limits (-10.0 170.0)
  end
  begin
     id 27 
     name rwrist
     direction -1 -4.48964e-011 1.58672e-027   
     length 1.6033   
     axis -1.65735e-015 -90 -90   XYZ
    dof ry
    limits (-180.0 0.0)
  end
  begin
     id 28
     name rhand
     direction -1 -4.49006e-011 3.17344e-027   
     length 0.691885   
     axis -2.02492e-015 -90 -90   XYZ
    dof rx rz
    limits (-90.0 90.0)
           (-45.0 45.0)
  end
  begin
     id 29
     name rfingers
     direction -1 -4.48908e-011 6.34687e-027   
     length 0.557815   
     axis -4.04985e-015 -90 -90   XYZ
    dof rx
    limits (0.0 90.0)
  end
  begin
     id 30
     name rthumb
     direction -0.707107 -6.34999e-011 0.707107   
     length 0.800915   
     axis -90 -45 -2.85299e-015   XYZ
    dof rx rz
    limits (-45.0 45.0)
           (-45.0 45.0)
  end
:hierarchy
  begin
    root lhipjoint rhipjoint lowerback
    lhipjoint lfemur
    lfemur ltibia
    ltibia lfoot
    lfoot ltoes
    rhipjoint rfemur
    rfemur rtibia
    rtibia rfoot
    rfoot rtoes
    lowerback upperback
    upperback thorax
    thorax lowerneck lclavicle rclavicle
    lowerneck upperneck
    upperneck head
    lclavicle lhumerus
    lhumerus lradius
    lradius lwrist
    lwrist lhand lthumb
    lhand lfingers
    rclavicle rhumerus
    rhumerus rradius
    rradius rwrist
    rwrist rhand rthumb
    rhand rfingers
  end

#!OML:ASF I:\Actors\actors\Patient Classification 1\Patient 1\Session 1\Subject1.ASF
:FULLY-SPECIFIED
:DEGREES
47
root 0.0393508 17.5173 8.43079 8.82351 -0.796376 -7.71996
lowerback -0.799581 1.01157 5.75105
upperback -9.54698 1.6897 0.782166
thorax -9.5406 0.398788 -2.49968
lowerneck -3.30273 -12.8156 -11.7802
upperneck 19.8098 -19.3185 12.266
head 9.10388 -9.14802 3.99816
rclavicle -1.32192e-014 -3.57812e-015
rhumerus -43.401 -21.5897 -72.7925
rradius 23.3352
rwrist 29.4475
rhand 15.0142 -32.8479
rfingers 7.12502
rthumb 39.8651 -58.1146
lclavicle -1.32192e-014 -3.57812e-015
lhumerus -47.8273 21.559 68.2862
lradius 18.8176
lwrist -25.7302
lhand -17.3978 -10.4281
lfingers 7.12502
lthumb 8.85144 19.3663
rfemur -4.30257 22.9057 23.9414
rtibia 4.66159
rfoot -13.19 -24.2045
rtoes 0.725657
lfemur 1.72389 -37.3024 -10.5472
ltibia -2.14861
lfoot -15.3401 46.2701
ltoes 3.35535
48
root 0.0382199 17.5169 8.43177 8.82944 -0.80978 -7.70731
lowerback -0.804562 1.02487 5.71468
upperback -9.54489 1.7058 0.785727
thorax -9.53422 0.410133 -2.47665
lowerneck -3.28152 -12.8234 -11.8528
upperneck 19.7992 -19.3229 12.268
head 9.1049 -9.1561 4.00983
rclavicle -3.47873e-015 -1.51076e-014
rhumerus -43.3728 -21.4733 -72.8707
rradius 23.4125
rwrist 29.2495
rhand 15.1065 -32.7262
rfingers 7.12502
rthumb 39.9519 -57.9667
lclavicle -3.47873e-015 -1.51076e-014
lhumerus -47.8121 21.5415 68.3464
lradius 18.8185
lwrist -25.7075
lhand -17.3417 -10.5301
lfingers 7.12502
lthumb 8.90564 19.262
rfemur -4.31404 22.9499 23.929
rtibia 4.67989
rfoot -13.1867 -24.2407
rtoes 0.684753
lfemur 1.72215 -37.319 -10.5598
ltibia -2.14572
lfoot -15.3668 46.2995
ltoes 3.37804
49
root 0.0372309 17.5168 8.4328 8.85278 -0.818632 -7.76035
lowerback -0.826804 1.03026 5.73901
upperback -9.54311 1.71415 0.808023
thorax -9.51873 0.413868 -2.46649
lowerneck -3.26598 -12.8287 -11.8101
upperneck 19.7518 -19.3203 12.2328
head 9.07696 -9.15668 3.99393
rclavicle 8.05078e-015 -1.47101e-014
rhumerus -43.3257 -21.3305 -72.9923
rradius 23.4927
rwrist 29.0555
rhand 15.059 -32.6761
rfingers 7.12502
rthumb 39.9072 -57.9301
lclavicle 8.05078e-015 -1.47101e-014
lhumerus -47.7886 21.5212 68.4019
lradius 18.8303
lwrist -25.6648
lhand -17.2631 -10.6599
lfingers 7.12502
lthumb 8.98148 19.1289
rfemur -4.34127 22.9673 23.9857
rtibia 4.69098
rfoot -13.1567 -24.2382
rtoes 0.653879
lfemur 1.71637 -37.3586 -10.486
ltibia -2.16243
lfoot -15.473 46.3434
ltoes 3.5775
50
root 0.0364405 17.5175 8.43417 8.85401 -0.818643 -7.78846
lowerback -0.831737 1.02081 5.74115
upperback -9.53791 1.70163 0.818054
thorax -9.51129 0.40833 -2.45598
lowerneck -3.22312 -12.8094 -11.7862
upperneck 19.695 -19.2994 12.2697
head 9.04808 -9.146 4.00954
rclavicle 4.96962e-015 -7.95139e-016
rhumerus -43.2786 -21.2154 -73.1214
rradius 23.5599
rwrist 28.9412
rhand 15.0014 -32.708
rfingers 7.12502
rthumb 39.8529 -57.9783
lclavicle 4.96962e-015 -7.95139e-016
lhumerus -47.7897 21.5064 68.4172
lradius 18.8556
lwrist -25.6405
lhand -17.2097 -10.7223
lfingers 7.12502
lthumb 9.03301 19.0643
rfemur -4.33796 22.9497 24.0239
rtibia 4.69731
rfoot -13.1801 -24.2081
rtoes 0.790951
lfemur 1.73573 -37.3585 -10.4543
ltibia -2.19062
lfoot -15.4521 46.3625
ltoes 3.57614
51
root 0.0361827 17.5183 8.43572 8.83072 -0.796341 -7.74536
lowerback -0.822645 0.996579 5.67429
upperback -9.52869 1.66582 0.813409
thorax -9.5097 0.39615 -2.4214
lowerneck -3.18308 -12.7884 -11.779
upperneck 19.6523 -19.2788 12.3166
head 9.02753 -9.13533 4.03045
rclavicle -4.67144e-015 -1.15295e-014
rhumerus -43.2376 -21.2051 -73.1717
rradius 23.6024
rwrist 28.9789
rhand 15.0137 -32.8153
rfingers 7.12502
rthumb 39.8646 -58.0821
lclavicle -4.67144e-015 -1.15295e-014
lhumerus -47.8202 21.5276 68.4011
lradius 18.8651
lwrist -25.6426
lhand -17.2017 -10.726
lfingers 7.12502
lthumb 9.04074 19.0603
rfemur -4.29044 22.931 23.9895
rtibia 4.67594
rfoot -13.2245 -24.2213
rtoes 0.937578
lfemur 1.76875 -37.3678 -10.5248
ltibia -2.19936
lfoot -15.4027 46.3581
ltoes 3.46463
52
root 0.0365388 17.5178 8.43714 8.82597 -0.790729 -7.71787
lowerback -0.831214 0.991209 5.63579
upperback -9.52387 1.65581 0.810896
thorax -9.50021 0.394616 -2.40175
lowerneck -3.15271 -12.7845 -11.8107
upperneck 19.6214 -19.2828 12.3771
head 9.02181 -9.13693 4.05671
rclavicle 8.05078e-015 -3.33958e-014
rhumerus -43.2225 -21.3818 -73.0797
rradius 23.6001
rwrist 29.1458
rhand 15.0917 -32.8479
rfingers 7.12502
rthumb 39.9379 -58.0926
lclavicle 8.05078e-015 -3.33958e-014
lhumerus -47.8411 21.6092 68.3611
lradius 18.8552
lwrist -25.715
lhand -17.2117 -10.6999
lfingers 7.12502
lthumb 9.03106 19.0867
rfemur -4.26582 22.935 23.9598
rtibia 4.65144
rfoot -13.2613 -24.24
rtoes 0.987209
lfemur 1.79055 -37.4019 -10.5784
ltibia -2.1984
lfoot -15.3713 46.3986
ltoes 3.3122
53
root 0.0366178 17.5165 8.43966 8.84914 -0.815768 -7.71968
lowerback -0.88075 1.00095 5.62373
upperback -9.51085 1.66455 0.816339
thorax -9.45553 0.401709 -2.38869
lowerneck -3.17704 -12.7719 -11.9766
upperneck 19.6731 -19.2992 12.5649
head 9.08441 -9.13859 4.13804
rclavicle -8.94531e-016 -1.07344e-014
rhumerus -43.1678 -21.579 -72.9883
rradius 23.5404
rwrist 29.3228
rhand 15.0889 -32.7895
rfingers 7.12502
rthumb 39.9354 -58.035
lclavicle -8.94531e-016 -1.07344e-014
lhumerus -47.8052 21.6392 68.387
lradius 18.869
lwrist -25.7178
lhand -17.2436 -10.6426
lfingers 7.12502
lthumb 9.00032 19.1454
rfemur -4.28117 22.9276 23.9515
rtibia 4.65385
rfoot -13.2754 -24.1968
rtoes 0.985992
lfemur 1.82135 -37.4661 -10.6022
ltibia -2.22179
lfoot -15.4052 46.4987
ltoes 3.26282
54
root 0.0370664 17.5156 8.44213 8.86978 -0.843908 -7.73177
lowerback -0.932292 0.994533 5.61652
upperback -9.49001 1.65205 0.833717
thorax -9.40298 0.398854 -2.36406
lowerneck -3.19815 -12.7571 -11.9884
upperneck 19.674 -19.2797 12.5852
head 9.0893 -9.1276 4.14796
rclavicle 6.65929e-015 2.3059e-014
rhumerus -43.0566 -21.5746 -73.0382
rradius 23.4886
rwrist 29.4008
rhand 15.0662 -32.8155
rfingers 7.12502
rthumb 39.914 -58.0674
lclavicle 6.65929e-015 2.3059e-014
lhumerus -47.7713 21.6436 68.4342
lradius 18.8915
lwrist -25.6448
lhand -17.2881 -10.6107
lfingers 7.12502
lthumb 8.95731 19.1792
rfemur -4.28962 22.9343 23.959
rtibia 4.64895
rfoot -13.2421 -24.1661
rtoes 0.921799
lfemur 1.85776 -37.5267 -10.6174
ltibia -2.24952
lfoot -15.4559 46.5723
ltoes 3.41109
55
root 0.0379674 17.5153 8.44289 8.89873 -0.85967 -7.78511
lowerback -0.963998 0.989069 5.66155
upperback -9.49659 1.64602 0.853858
thorax -9.39234 0.393398 -2.36662
lowerneck -3.15933 -12.7441 -11.8795
upperneck 19.6557 -19.2375 12.441
head 9.04276 -9.1143 4.09392
rclavicle 8.84592e-015 5.56597e-015
rhumerus -43.0273 -21.5664 -73.0694
rradius 23.4662
rwrist 29.503
rhand 15.0373 -32.8588
rfingers 7.12502
rthumb 39.8868 -58.1189
lclavicle 8.84592e-015 5.56597e-015
lhumerus -47.8066 21.7085 68.3948
lradius 18.8867
lwrist -25.6574
lhand -17.2859 -10.5446
lfingers 7.12502
lthumb 8.95951 19.2452
rfemur -4.31702 23.0022 24.0134
rtibia 4.64885
rfoot -13.2305 -24.2251
rtoes 0.882363
lfemur 1.83805 -37.5311 -10.5403
ltibia -2.25665
lfoot -15.469 46.5835
ltoes 3.52377
56
root 0.0380948 17.5154 8.44303 8.93514 -0.862846 -7.84189
lowerback -0.986486 0.991435 5.70554
upperback -9.50008 1.65053 0.866482
thorax -9.38261 0.392903 -2.37748
lowerneck -3.19454 -12.7626 -11.7905
upperneck 19.7033 -19.2487 12.3251
head 9.04518 -9.11962 4.03838
rclavicle 9.93923e-017 4.37326e-015
rhumerus -43.0026 -21.7578 -72.9856
rradius 23.3636
rwrist 29.7623
rhand 14.9396 -32.8317
rfingers 7.12502
rthumb 39.7948 -58.1193
lclavicle 9.93923e-017 4.37326e-015
lhumerus -47.8021 21.8134 68.3253
lradius 18.8414
lwrist -25.7559
lhand -17.2775 -10.4381
lfingers 7.12502
lthumb 8.96757 19.3514
rfemur -4.36324 23.0636 24.0673
rtibia 4.66635
rfoot -13.2684 -24.2728
rtoes 1.01483
lfemur 1.79149 -37.5332 -10.4349
ltibia -2.26096
lfoot -15.5661 46.5878
ltoes 3.63259
57
root 0.0379223 17.5156 8.44422 8.94549 -0.877538 -7.84963
lowerback -0.998507 1.00074 5.68821
upperback -9.46887 1.66062 0.874171
thorax -9.33978 0.401448 -2.35989
lowerneck -3.2564 -12.7764 -11.798
upperneck 19.7208 -19.2558 12.2917
head 9.06072 -9.12238 4.02265
rclavicle 1.00386e-014 -8.74653e-015
rhumerus -42.9101 -21.9449 -72.912
rradius 23.2355
rwrist 29.9398
rhand 14.8703 -32.8369
rfingers 7.12502
rthumb 39.7296 -58.144
lclavicle 1.00386e-014 -8.74653e-015
lhumerus -47.731 21.9809 68.2514
lradius 18.7657
lwrist -25.9447
lhand -17.2685 -10.4234
lfingers 7.12502
lthumb 8.97622 19.3657
rfemur -4.36942 23.0853 24.0715
rtibia 4.66298
rfoot -13.2651 -24.2621
rtoes 1.02359
lfemur 1.80869 -37.5987 -10.4352
ltibia -2.28258
lfoot -15.6836 46.6737
ltoes 3.73117
